<?xml version="1.0" encoding="UTF-8"?>
<svg width="33px" height="32px" viewBox="0 0 33 32" version="1.1" xmlns="http://www.w3.org/2000/svg" xmlns:xlink="http://www.w3.org/1999/xlink">
    <!-- Generator: Sketch 57.1 (83088) - https://sketch.com -->
    <title>Shape</title>
    <desc>Created with Sketch.</desc>
    <g id="Page-1" stroke="none" stroke-width="1" fill-rule="evenodd">
        <path d="M16.906,-0.031 C16.8637105,-0.0233632429 16.8219573,-0.0130084415 16.781,1.32227562e-13 C16.3154489,0.104345383 15.9884497,0.523038387 16,1 L16,4 C16,4.55228475 16.4477153,5 17,5 C17.5522847,5 18,4.55228475 18,4 L18,1 C18.0102155,0.712319353 17.8959634,0.434189633 17.6864717,0.236761864 C17.4769799,0.0393340953 17.1925702,-0.0582403429 16.906,-0.031 Z M6.281,4.375 C5.89154238,4.41263313 5.55980874,4.67394792 5.43201917,5.04376317 C5.30422961,5.41357842 5.40386169,5.82395152 5.687,6.094 L7.781,8.219 C8.03787396,8.47587396 8.41227591,8.57619466 8.76317227,8.48217227 C9.11406862,8.38814987 9.38814987,8.11406862 9.48217227,7.76317227 C9.57619466,7.41227591 9.47587396,7.03787396 9.219,6.781 L7.094,4.687 C6.90694268,4.48912859 6.64728506,4.37609266 6.375,4.374 C6.34368399,4.37252652 6.31231601,4.37252652 6.281,4.374 L6.281,4.375 Z M27.5,4.375 C27.2718447,4.40775835 27.0620104,4.51832758 26.906,4.688 L24.781,6.782 C24.524126,7.03887396 24.4238053,7.41327591 24.5178277,7.76417227 C24.6118501,8.11506862 24.8859314,8.38914987 25.2368277,8.48317227 C25.5877241,8.57719466 25.962126,8.47687396 26.219,8.22 L28.313,6.095 C28.6093938,5.80873901 28.6998507,5.36998042 28.5408475,4.98983225 C28.3818443,4.60968408 28.0059398,4.36598879 27.594,4.376 C27.562684,4.37452652 27.531316,4.37452652 27.5,4.376 L27.5,4.375 Z M17,8 C12.6,8 9,11.6 9,16 C9,20.4 12.6,24 17,24 C21.4,24 25,20.4 25,16 C25,11.6 21.4,8 17,8 Z M1.812,15 C1.25971525,15.0519148 0.854085234,15.5417153 0.906,16.094 C0.957914766,16.6462847 1.44771525,17.0519148 2,17 L5,17 C5.55228475,17 6,16.5522847 6,16 C6,15.4477153 5.55228475,15 5,15 L2,15 C1.96868399,14.9985265 1.93731601,14.9985265 1.906,15 C1.87468396,14.998528 1.84331604,14.998528 1.812,15 Z M28.812,15 C28.2597153,15.0519148 27.8540852,15.5417153 27.906,16.094 C27.9579148,16.6462847 28.4477153,17.0519148 29,17 L32,17 C32.5522847,17 33,16.5522847 33,16 C33,15.4477153 32.5522847,15 32,15 L29,15 C28.968684,14.9985265 28.937316,14.9985265 28.906,15 C28.874684,14.998528 28.843316,14.998528 28.812,15 L28.812,15 Z M25.406,23.469 C25.3637105,23.4766368 25.3219573,23.4869916 25.281,23.5 C24.9077322,23.5675527 24.6048218,23.840487 24.4988775,24.2047233 C24.3929333,24.5689595 24.5021974,24.9617817 24.781,25.219 L26.906,27.313 C27.1461502,27.6114532 27.535694,27.7464875 27.9090399,27.6607013 C28.2823857,27.574915 28.573915,27.2833857 28.6597013,26.9100399 C28.7454875,26.536694 28.6104532,26.1471502 28.312,25.907 L26.218,23.782 C26.0090753,23.5589026 25.7095932,23.4436039 25.405,23.469 L25.406,23.469 Z M8.375,23.5 C8.15099956,23.524081 7.94169364,23.6230961 7.781,23.781 L5.687,25.906 C5.38854685,26.1461502 5.25351246,26.535694 5.33929873,26.9090399 C5.425085,27.2823857 5.7166143,27.573915 6.08996015,27.6597013 C6.46330599,27.7454875 6.85284979,27.6104532 7.093,27.312 L9.218,25.218 C9.5411328,24.9175943 9.62920883,24.4409201 9.43475971,24.0448798 C9.24031059,23.6488394 8.80929186,23.427032 8.374,23.499 L8.375,23.5 Z M16.906,26.969 C16.8637105,26.9766368 16.8219573,26.9869916 16.781,27 C16.3154489,27.1043454 15.9884497,27.5230384 16,28 L16,31 C16,31.5522847 16.4477153,32 17,32 C17.5522847,32 18,31.5522847 18,31 L18,28 C18.0102155,27.7123194 17.8959634,27.4341896 17.6864717,27.2367619 C17.4769799,27.0393341 17.1925702,26.9417597 16.906,26.969 Z" id="Shape" fill-rule="nonzero"></path>
    </g>
</svg>